<svg width="60" height="51" viewBox="0 0 60 51" fill="none" xmlns="http://www.w3.org/2000/svg">
<mask id="path-1-outside-1_0_1" maskUnits="userSpaceOnUse" x="3" y="19" width="57" height="32" fill="black">
<rect fill="white" x="3" y="19" width="57" height="32"/>
<path d="M31.5 23C45.031 23 56 27.9249 56 34V36C56 42.0751 45.031 47 31.5 47C17.969 47 7 42.0751 7 36V34C7 27.9249 17.969 23 31.5 23Z"/>
</mask>
<path d="M31.5 23C45.031 23 56 27.9249 56 34V36C56 42.0751 45.031 47 31.5 47C17.969 47 7 42.0751 7 36V34C7 27.9249 17.969 23 31.5 23Z" fill="black"/>
<path d="M31.5 23V27C37.8349 27 43.3771 28.1609 47.1858 29.8709C51.3731 31.751 52 33.5217 52 34H56H60C60 28.4031 55.1423 24.6739 50.4625 22.5727C45.4039 20.3015 38.6961 19 31.5 19V23ZM56 34H52V36H56H60V34H56ZM56 36H52C52 36.4783 51.3731 38.249 47.1858 40.1291C43.3771 41.8391 37.8349 43 31.5 43V47V51C38.6961 51 45.4039 49.6985 50.4625 47.4273C55.1423 45.3261 60 41.5969 60 36H56ZM31.5 47V43C25.1651 43 19.6229 41.8391 15.8142 40.1291C11.6269 38.249 11 36.4783 11 36H7H3C3 41.5969 7.85766 45.3261 12.5375 47.4273C17.5961 49.6985 24.3039 51 31.5 51V47ZM7 36H11V34H7H3V36H7ZM7 34H11C11 33.5217 11.6269 31.751 15.8142 29.8709C19.6229 28.1609 25.1651 27 31.5 27V23V19C24.3039 19 17.5961 20.3015 12.5375 22.5727C7.85766 24.6739 3 28.4031 3 34H7Z" fill="white" mask="url(#path-1-outside-1_0_1)"/>
<mask id="path-3-outside-2_0_1" maskUnits="userSpaceOnUse" x="0" y="10" width="57" height="32" fill="black">
<rect fill="white" y="10" width="57" height="32"/>
<path d="M28.5 14C42.031 14 53 18.9249 53 25V27C53 33.0751 42.031 38 28.5 38C14.969 38 4 33.0751 4 27V25C4 18.9249 14.969 14 28.5 14Z"/>
</mask>
<path d="M28.5 14C42.031 14 53 18.9249 53 25V27C53 33.0751 42.031 38 28.5 38C14.969 38 4 33.0751 4 27V25C4 18.9249 14.969 14 28.5 14Z" fill="black"/>
<path d="M28.5 14V18C34.8349 18 40.3771 19.1609 44.1858 20.8709C48.3731 22.751 49 24.5217 49 25H53H57C57 19.4031 52.1423 15.6739 47.4625 13.5727C42.4039 11.3015 35.6961 10 28.5 10V14ZM53 25H49V27H53H57V25H53ZM53 27H49C49 27.4783 48.3731 29.249 44.1858 31.1291C40.3771 32.8391 34.8349 34 28.5 34V38V42C35.6961 42 42.4039 40.6985 47.4625 38.4273C52.1423 36.3261 57 32.5969 57 27H53ZM28.5 38V34C22.1651 34 16.6229 32.8391 12.8142 31.1291C8.62686 29.249 8 27.4783 8 27H4H0C0 32.5969 4.85766 36.3261 9.53752 38.4273C14.5961 40.6985 21.3039 42 28.5 42V38ZM4 27H8V25H4H0V27H4ZM4 25H8C8 24.5217 8.62686 22.751 12.8142 20.8709C16.6229 19.1609 22.1651 18 28.5 18V14V10C21.3039 10 14.5961 11.3015 9.53752 13.5727C4.85766 15.6739 0 19.4031 0 25H4Z" fill="white" mask="url(#path-3-outside-2_0_1)"/>
<mask id="path-5-outside-3_0_1" maskUnits="userSpaceOnUse" x="3" y="1" width="57" height="32" fill="black">
<rect fill="white" x="3" y="1" width="57" height="32"/>
<path d="M31.5 5C45.031 5 56 9.92487 56 16V18C56 24.0751 45.031 29 31.5 29C17.969 29 7 24.0751 7 18V16C7 9.92487 17.969 5 31.5 5Z"/>
</mask>
<path d="M31.5 5C45.031 5 56 9.92487 56 16V18C56 24.0751 45.031 29 31.5 29C17.969 29 7 24.0751 7 18V16C7 9.92487 17.969 5 31.5 5Z" fill="black"/>
<path d="M31.5 5V9C37.8349 9 43.3771 10.1609 47.1858 11.8709C51.3731 13.751 52 15.5217 52 16H56H60C60 10.4031 55.1423 6.67391 50.4625 4.57275C45.4039 2.30153 38.6961 1 31.5 1V5ZM56 16H52V18H56H60V16H56ZM56 18H52C52 18.4783 51.3731 20.249 47.1858 22.1291C43.3771 23.8391 37.8349 25 31.5 25V29V33C38.6961 33 45.4039 31.6985 50.4625 29.4273C55.1423 27.3261 60 23.5969 60 18H56ZM31.5 29V25C25.1651 25 19.6229 23.8391 15.8142 22.1291C11.6269 20.249 11 18.4783 11 18H7H3C3 23.5969 7.85766 27.3261 12.5375 29.4273C17.5961 31.6985 24.3039 33 31.5 33V29ZM7 18H11V16H7H3V18H7ZM7 16H11C11 15.5217 11.6269 13.751 15.8142 11.8709C19.6229 10.1609 25.1651 9 31.5 9V5V1C24.3039 1 17.5961 2.30153 12.5375 4.57275C7.85766 6.67391 3 10.4031 3 16H7Z" fill="white" mask="url(#path-5-outside-3_0_1)"/>
<mask id="path-7-outside-4_0_1" maskUnits="userSpaceOnUse" x="21" y="0" width="38" height="21" fill="black">
<rect fill="white" x="21" width="38" height="21"/>
<path d="M40 4C48.2843 4 55 6.66236 55 9.94629V11.0273L54.9951 11.1807C54.7896 14.3936 48.1547 16.9736 40 16.9736C31.8453 16.9736 25.2104 14.3936 25.0049 11.1807L25 11.0273V9.94629C25 6.66236 31.7157 4 40 4Z"/>
</mask>
<path d="M40 4C48.2843 4 55 6.66236 55 9.94629V11.0273L54.9951 11.1807C54.7896 14.3936 48.1547 16.9736 40 16.9736C31.8453 16.9736 25.2104 14.3936 25.0049 11.1807L25 11.0273V9.94629C25 6.66236 31.7157 4 40 4Z" fill="black"/>
<path d="M40 4L40 0L40 4ZM55 11.0273L58.998 11.1547L59 11.091V11.0273H55ZM54.9951 11.1807L58.987 11.436L58.9911 11.372L58.9931 11.308L54.9951 11.1807ZM40 16.9736V20.9736V16.9736ZM25.0049 11.1807L21.0069 11.308L21.0089 11.372L21.013 11.436L25.0049 11.1807ZM25 11.0273H21V11.091L21.002 11.1547L25 11.0273ZM40 4V8C43.7672 8 46.9945 8.61257 49.1325 9.46015C50.2131 9.88854 50.8178 10.299 51.0859 10.5503C51.3471 10.7951 51 10.5933 51 9.94629H55H59C59 7.65732 57.8135 5.89124 56.5566 4.71324C55.3066 3.54173 53.7145 2.67089 52.0807 2.0232C48.7898 0.718608 44.517 0 40 0V4ZM55 9.94629H51V11.0273H55H59V9.94629H55ZM55 11.0273L51.002 10.9L50.9971 11.0533L54.9951 11.1807L58.9931 11.308L58.998 11.1547L55 11.0273ZM54.9951 11.1807L51.0033 10.9254C51.0419 10.3213 51.3594 10.1801 51.0508 10.4552C50.7482 10.7249 50.1149 11.1335 49.0345 11.5517C46.893 12.3807 43.7057 12.9736 40 12.9736V16.9736V20.9736C44.449 20.9736 48.6566 20.2765 51.9225 19.0123C53.5459 18.3838 55.1196 17.5451 56.3736 16.4274C57.6217 15.315 58.8456 13.6465 58.987 11.436L54.9951 11.1807ZM40 16.9736L40 12.9736C36.2943 12.9736 33.107 12.3807 30.9655 11.5517C29.8851 11.1335 29.2518 10.7249 28.9492 10.4552C28.6406 10.1801 28.9581 10.3213 28.9967 10.9254L25.0049 11.1807L21.013 11.436C21.1544 13.6465 22.3783 15.315 23.6264 16.4274C24.8804 17.5451 26.4541 18.3838 28.0775 19.0123C31.3434 20.2765 35.551 20.9736 40 20.9736L40 16.9736ZM25.0049 11.1807L29.0029 11.0533L28.998 10.9L25 11.0273L21.002 11.1547L21.0069 11.308L25.0049 11.1807ZM25 11.0273H29V9.94629H25H21V11.0273H25ZM25 9.94629H29C29 10.5933 28.6529 10.7951 28.9141 10.5503C29.1822 10.299 29.7869 9.88854 30.8675 9.46015C33.0055 8.61257 36.2328 8 40 8L40 4L40 0C35.483 1.74074e-08 31.2102 0.718608 27.9193 2.0232C26.2855 2.67089 24.6934 3.54173 23.4434 4.71324C22.1865 5.89124 21 7.65732 21 9.94629H25Z" fill="white" mask="url(#path-7-outside-4_0_1)"/>
</svg>

